HIERARCHY
ROOT joint_Root
{
	OFFSET 0.0 0.0 0.0
	CHANNELS 6 Xposition Yposition Zposition Zrotation Xrotation Yrotation 
	JOINT Hips
	{
		OFFSET -0.726466 93.3139 -2.00062
		CHANNELS 6 Xposition Yposition Zposition Zrotation Xrotation Yrotation 
		JOINT Spine
		{
			OFFSET 15.7357 0.0 0.0
			CHANNELS 6 Xposition Yposition Zposition Zrotation Xrotation Yrotation 
			JOINT Chest
			{
				OFFSET 8.98455 -0.406207 0.0
				CHANNELS 6 Xposition Yposition Zposition Zrotation Xrotation Yrotation 
				JOINT Neck
				{
					OFFSET 16.3773 0.0 0.0
					CHANNELS 6 Xposition Yposition Zposition Zrotation Xrotation Yrotation 
					JOINT Head
					{
						OFFSET 6.45672 0.0 0.0
						CHANNELS 6 Xposition Yposition Zposition Zrotation Xrotation Yrotation 
						End Site
						{
							OFFSET 0.0 0.0 0.0
						}
					}
				}
				JOINT Shoulder_L
				{
					OFFSET 12.9942 -0.242716 4.98039
					CHANNELS 6 Xposition Yposition Zposition Zrotation Xrotation Yrotation 
					JOINT UpperArm_L
					{
						OFFSET 5.34809 0.0 0.0
						CHANNELS 6 Xposition Yposition Zposition Zrotation Xrotation Yrotation 
						JOINT LowerArm_L
						{
							OFFSET 24.3286 1.87007e-05 0.0
							CHANNELS 6 Xposition Yposition Zposition Zrotation Xrotation Yrotation 
							JOINT Hand_L
							{
								OFFSET 22.2916 0.0 0.0
								CHANNELS 6 Xposition Yposition Zposition Zrotation Xrotation Yrotation 
								End Site
								{
									OFFSET 0.0 0.0 0.0
								}
							}
						}
					}
				}
				JOINT Shoulder_R
				{
					OFFSET 12.9945 -0.242716 -4.98039
					CHANNELS 6 Xposition Yposition Zposition Zrotation Xrotation Yrotation 
					JOINT UpperArm_R
					{
						OFFSET -5.34813 0.0 0.0
						CHANNELS 6 Xposition Yposition Zposition Zrotation Xrotation Yrotation 
						JOINT LowerArm_R
						{
							OFFSET -24.3289 0.000322201 0.0
							CHANNELS 6 Xposition Yposition Zposition Zrotation Xrotation Yrotation 
							JOINT Hand_R
							{
								OFFSET -22.2915 -0.000108084 0.0
								CHANNELS 6 Xposition Yposition Zposition Zrotation Xrotation Yrotation 
								End Site
								{
									OFFSET 0.0 0.0 0.0
								}
							}
						}
					}
				}
			}
		}
		JOINT UpperLeg_L
		{
			OFFSET -2.19248 -6.46944 0.0
			CHANNELS 6 Xposition Yposition Zposition Zrotation Xrotation Yrotation 
			JOINT LowerLeg_L
			{
				OFFSET 39.0811 0.0 -1.23785e-05
				CHANNELS 6 Xposition Yposition Zposition Zrotation Xrotation Yrotation 
				JOINT Foot_L
				{
					OFFSET 40.9854 0.0 -1.26872e-05
					CHANNELS 6 Xposition Yposition Zposition Zrotation Xrotation Yrotation 
					JOINT Toes_L
					{
						OFFSET 11.7543 0.0 0.0
						CHANNELS 6 Xposition Yposition Zposition Zrotation Xrotation Yrotation 
						End Site
						{
							OFFSET 0.0 0.0 0.0
						}
					}
				}
			}
		}
		JOINT UpperLeg_R
		{
			OFFSET -2.19251 6.46944 0.0
			CHANNELS 6 Xposition Yposition Zposition Zrotation Xrotation Yrotation 
			JOINT LowerLeg_R
			{
				OFFSET -39.0811 -0.00228153 -0.0401928
				CHANNELS 6 Xposition Yposition Zposition Zrotation Xrotation Yrotation 
				JOINT Foot_R
				{
					OFFSET -40.9854 0.0 0.0
					CHANNELS 6 Xposition Yposition Zposition Zrotation Xrotation Yrotation 
					JOINT Toes_R
					{
						OFFSET -11.7543 0.0 0.0
						CHANNELS 6 Xposition Yposition Zposition Zrotation Xrotation Yrotation 
						End Site
						{
							OFFSET 0.0 0.0 0.0
						}
					}
				}
			}
		}
	}
}
MOTION
Frames:	5
Frame Time:	0.0333333
0.000000 0.000000 0.000000 0.000000 0.000000 -0.000000 2.896690 92.040000 -2.125260 87.897800 -6.061930 5.236150 15.735700 0.000005 -0.000001 88.716400 84.544300 -92.337400 8.984550 -0.406207 -0.000000 3.149780 -0.098640 -7.231740 16.377300 -0.000001 -0.000001 -0.459863 -2.358770 0.808061 6.456720 -0.000001 -0.000000 -4.700760 -1.871690 -5.971590 12.994200 -0.242716 4.980390 -88.096000 -5.434590 -70.658300 5.348090 -0.000007 -0.000001 0.914165 78.541400 -48.510800 24.328600 0.000019 0.000005 13.918900 -0.034931 -90.141000 22.291600 -0.000001 0.000005 43.287700 5.563540 -32.878400 12.994500 -0.242716 -4.980390 92.065500 -4.709470 -66.285500 -5.348130 -0.000001 -0.000004 -52.867300 -56.158600 -81.936100 -24.328900 0.000322 -0.000009 0.122169 0.498902 -13.879900 -22.291500 -0.000108 -0.000004 19.469700 5.340600 -1.097380 -2.192480 -6.469440 -0.000000 -171.172000 -19.289300 -2.270430 39.081100 -0.000007 -0.000012 -0.169970 0.371123 24.607400 40.985400 -0.000006 -0.000013 -5.228070 -5.736100 -65.327500 11.754300 -0.000000 0.000003 -0.000113 -0.001138 -16.621100 -2.192510 6.469440 -0.000001 171.778000 19.819000 178.903000 -39.081100 -0.002282 -0.040193 0.037085 -0.093201 19.914000 -40.985400 0.000008 0.000006 -2.556710 3.697220 -60.099000 -11.754300 -0.000006 -0.000006 -0.004696 -0.058489 -18.952700
0.000000 0.000000 0.000000 0.000000 0.000000 -0.000000 2.842930 92.047000 -2.219820 87.843800 -6.331300 5.302450 15.735700 0.000005 -0.000001 89.093900 84.521800 -92.733200 8.984550 -0.406207 -0.000000 3.198550 -0.028348 -7.270130 16.377300 -0.000001 -0.000001 -0.478173 -2.469300 0.903692 6.456720 -0.000001 -0.000000 -4.789150 -2.017470 -5.965450 12.994200 -0.242716 4.980390 -88.096800 -5.448100 -70.710000 5.348090 -0.000007 -0.000001 1.151770 78.496800 -48.741300 24.328600 0.000019 0.000005 13.965700 -0.037519 -90.150900 22.291600 -0.000001 0.000005 43.342200 5.562580 -32.926700 12.994500 -0.242716 -4.980390 92.149900 -4.916110 -66.343300 -5.348130 -0.000001 -0.000004 -53.220700 -55.854400 -84.375600 -24.328900 0.000322 -0.000009 0.022081 0.081627 -15.837700 -22.291500 -0.000108 -0.000004 19.450400 5.349510 -1.362560 -2.192480 -6.469440 -0.000000 -171.015000 -19.494300 -2.180790 39.081100 -0.000007 -0.000012 -0.173026 0.378121 24.588700 40.985400 -0.000006 -0.000013 -5.270460 -5.761040 -65.269700 11.754300 -0.000000 0.000003 -0.000122 -0.001215 -16.624000 -2.192510 6.469440 -0.000001 171.878000 19.793100 178.839000 -39.081100 -0.002282 -0.040193 0.035972 -0.089929 19.954200 -40.985400 0.000008 0.000006 -2.511470 3.925010 -59.997000 -11.754300 -0.000006 -0.000006 -0.004423 -0.055772 -18.842000
0.000000 0.000000 0.000000 0.000000 0.000000 -0.000000 2.782700 92.056400 -2.312210 87.785800 -6.554470 5.322630 15.735700 0.000005 -0.000001 89.633900 84.498400 -93.297400 8.984550 -0.406207 -0.000000 3.249840 0.073823 -7.321050 16.377300 -0.000001 -0.000001 -0.530195 -2.512380 0.953342 6.456720 -0.000001 -0.000000 -4.861290 -2.123090 -6.019030 12.994200 -0.242716 4.980390 -88.103500 -5.433050 -70.724100 5.348090 -0.000007 -0.000001 1.438450 78.403700 -48.988000 24.328600 0.000019 0.000005 13.722900 -0.052693 -90.215800 22.291600 -0.000001 0.000005 43.265300 5.560990 -33.001700 12.994500 -0.242716 -4.980390 92.227900 -5.097690 -66.354000 -5.348130 -0.000001 -0.000004 -53.851500 -55.591200 -87.264500 -24.328900 0.000322 -0.000009 -0.044865 -0.136469 -17.795800 -22.291500 -0.000108 -0.000004 19.512000 5.358230 -1.625770 -2.192480 -6.469440 -0.000000 -170.930000 -19.507000 -2.177720 39.081100 -0.000007 -0.000012 -0.170493 0.372756 24.578900 40.985400 -0.000006 -0.000013 -5.333960 -5.969200 -65.221300 11.754300 -0.000000 0.000003 -0.000123 -0.001224 -16.624300 -2.192510 6.469440 -0.000001 172.008000 19.748200 178.740000 -39.081100 -0.002282 -0.040193 0.036123 -0.090177 19.988400 -40.985400 0.000008 0.000006 -2.421510 4.066200 -59.904200 -11.754300 -0.000006 -0.000006 -0.004732 -0.058849 -18.967300
0.000000 0.000000 0.000000 0.000000 0.000000 -0.000000 2.717250 92.063500 -2.420470 87.740200 -6.641390 5.332170 15.735700 0.000005 -0.000001 90.139700 84.480300 -93.827400 8.984550 -0.406207 -0.000000 3.289460 0.170601 -7.372310 16.377300 -0.000001 -0.000001 -0.554831 -2.548480 0.986921 6.456720 -0.000001 -0.000000 -4.881790 -2.159950 -6.160450 12.994200 -0.242716 4.980390 -88.114800 -5.412840 -70.765100 5.348090 -0.000007 -0.000001 1.432740 78.336500 -48.949400 24.328600 0.000019 0.000005 13.747000 -0.057597 -90.235500 22.291600 -0.000001 0.000005 43.270800 5.561190 -32.991700 12.994500 -0.242716 -4.980390 92.325000 -5.314680 -66.329900 -5.348130 -0.000001 -0.000004 -54.415000 -55.392600 -90.159600 -24.328900 0.000322 -0.000009 -0.101969 -0.278996 -19.895700 -22.291500 -0.000108 -0.000004 19.387400 5.366630 -1.882830 -2.192480 -6.469440 -0.000000 -170.821000 -19.585900 -2.213310 39.081100 -0.000007 -0.000012 -0.172137 0.376478 24.571600 40.985400 -0.000006 -0.000013 -5.361260 -5.951340 -65.132700 11.754300 -0.000000 0.000003 -0.000124 -0.001237 -16.624800 -2.192510 6.469440 -0.000001 172.126000 19.810200 178.647000 -39.081100 -0.002282 -0.040193 0.036121 -0.090018 20.020100 -40.985400 0.000008 0.000006 -2.373970 4.179920 -59.839500 -11.754300 -0.000006 -0.000006 -0.004636 -0.057901 -18.928800
0.000000 0.000000 0.000000 0.000000 0.000000 -0.000000 2.642310 92.078400 -2.519780 87.666000 -6.626740 5.353640 15.735700 0.000005 -0.000001 90.752000 84.459800 -94.457700 8.984550 -0.406207 -0.000000 3.333620 0.288245 -7.411660 16.377300 -0.000001 -0.000001 -0.490120 -2.542800 0.973107 6.456720 -0.000001 -0.000000 -4.925010 -2.185630 -6.242980 12.994200 -0.242716 4.980390 -88.113900 -5.425830 -70.798400 5.348090 -0.000007 -0.000001 1.539880 78.293900 -49.051100 24.328600 0.000019 0.000005 13.936000 -0.066524 -90.268100 22.291600 -0.000001 0.000005 43.357600 5.564370 -32.837600 12.994500 -0.242716 -4.980390 92.434900 -5.548810 -66.261800 -5.348130 -0.000001 -0.000004 -54.945000 -55.217600 -93.056500 -24.328900 0.000322 -0.000009 -0.164631 -0.403113 -22.075400 -22.291500 -0.000108 -0.000004 19.376500 5.376290 -2.182060 -2.192480 -6.469440 -0.000000 -170.692000 -19.646300 -2.240620 39.081100 -0.000007 -0.000012 -0.172041 0.376790 24.541500 40.985400 -0.000006 -0.000013 -5.366680 -5.890490 -65.022600 11.754300 -0.000000 0.000003 -0.000110 -0.001120 -16.620400 -2.192510 6.469440 -0.000001 172.266000 19.860600 178.617000 -39.081100 -0.002282 -0.040193 0.035564 -0.088562 20.004900 -40.985400 0.000008 0.000006 -2.326470 4.180730 -59.732000 -11.754300 -0.000006 -0.000006 -0.004671 -0.058249 -18.942900
